<svg width="15" height="15" viewBox="0 0 15 15" fill="none" xmlns="http://www.w3.org/2000/svg">
<path d="M2.44898 14.398L2.89619 14.1743L2.44898 14.398ZM12.551 14.398L12.9982 14.6216L12.551 14.398ZM0.703196 5.99998H14.2968V4.99998H0.703196V5.99998ZM14 5.70318V6.14194H15V5.70318H14ZM12.3859 14H2.61409V15H12.3859V14ZM1 6.14194V5.70318H0V6.14194H1ZM2.89619 14.1743C1.6492 11.6804 1 8.93029 1 6.14194H0C0 9.08553 0.685346 11.9887 2.00176 14.6216L2.89619 14.1743ZM2.61409 14C2.73356 14 2.84277 14.0675 2.89619 14.1743L2.00176 14.6216C2.11773 14.8535 2.35478 15 2.61409 15V14ZM12.1038 14.1743C12.1572 14.0675 12.2664 14 12.3859 14V15C12.6452 15 12.8823 14.8535 12.9982 14.6216L12.1038 14.1743ZM14 6.14194C14 8.93029 13.3508 11.6804 12.1038 14.1743L12.9982 14.6216C14.3147 11.9887 15 9.08553 15 6.14194H14ZM14.2968 5.99998C14.1329 5.99998 14 5.8671 14 5.70318H15C15 5.31481 14.6852 4.99998 14.2968 4.99998V5.99998ZM0.703196 4.99998C0.314831 4.99998 0 5.31481 0 5.70318H1C1 5.8671 0.867117 5.99998 0.703196 5.99998V4.99998ZM3.92875 5.75723L6.92875 0.757233L6.07125 0.242737L3.07125 5.24273L3.92875 5.75723ZM8.07125 0.757233L11.0713 5.75723L11.9287 5.24273L8.92875 0.242737L8.07125 0.757233Z" fill="white"/>
</svg>
