<svg id="Слой_1" data-name="Слой 1" xmlns="http://www.w3.org/2000/svg" viewBox="0 0 92.1 86.32"><defs><style>.cls-1{fill:none;stroke:#fff;stroke-miterlimit:10;stroke-width:7px;}</style></defs><line class="cls-1" x1="86.77" y1="29.11" x2="86.77" y2="29.11"/><path class="cls-1" d="M48.17,82.91C42.39,81.26,34,77.14,26.48,71.31A68.91,68.91,0,0,1,8.85,51.55C-.7,33.71,3,13.43,16.28,6c10.08-4.72,23.42-.36,32.64,9.93"/><path class="cls-1" d="M46.55,82.91c4.82-1.15,10.33-4.78,18-10.81a72.39,72.39,0,0,0,18-20.37c10.69-17.45,6.75-40-7-46.37C65.45.65,54.41,5.16,45,15.77"/><line class="cls-1" x1="48.55" y1="15.61" x2="49.28" y2="16.27"/></svg>