<?xml version="1.0" encoding="iso-8859-1"?>
<!-- Generator: Adobe Illustrator 19.0.0, SVG Export Plug-In . SVG Version: 6.00 Build 0)  -->
<svg version="1.1" id="Layer_1" xmlns="http://www.w3.org/2000/svg" xmlns:xlink="http://www.w3.org/1999/xlink" x="0px" y="0px"
	 viewBox="0 0 501.396 501.396" style="enable-background:new 0 0 501.396 501.396;" xml:space="preserve">
<g>
	<g>
		<circle cx="337.129" cy="185.631" r="21.333"/>
	</g>
</g>
<g>
	<g>
		<circle cx="164.329" cy="185.631" r="21.333"/>
	</g>
</g>
<g>
	<g>
		<path d="M452.329,39.498c-25.6-25.6-57.6-39.467-90.667-39.467c-44.8,0-86.4,25.6-112,67.2c-25.6-41.6-66.133-67.2-110.933-67.2
			C64.062,0.031,3.262,72.564,0.062,167.498c-4.267,114.133,212.267,307.2,236.8,328.533c4.267,3.2,8.533,5.333,13.867,5.333
			c4.267,0,9.6-1.067,12.8-4.267c9.6-7.467,235.733-188.8,237.867-328.533C501.396,118.431,484.329,71.498,452.329,39.498z
			 M251.796,453.364c-70.4-64-213.333-209.067-209.067-284.8c2.133-71.467,44.8-126.933,97.067-126.933
			c40.533,0,76.8,33.067,90.667,84.267c3.2,8.533,10.667,14.933,20.267,14.933c9.6,0,18.133-6.4,20.267-14.933
			c14.933-50.133,51.2-83.2,91.733-83.2c22.4,0,43.733,9.6,60.8,27.733c23.467,23.467,37.333,59.733,36.267,98.133
			C458.729,261.364,320.062,395.764,251.796,453.364z"/>
	</g>
</g>
<g>
	<g>
		<path d="M318.996,293.365c-5.333-10.667-17.067-14.934-27.733-9.6c-44.8,21.333-77.867,2.133-80,1.067c-9.6-6.4-22.4-3.2-28.8,6.4
			c-6.4,9.6-3.2,22.4,6.4,28.8c2.133,0,25.6,14.933,60.8,14.933c18.133,0,38.4-3.2,59.733-13.867
			C320.062,315.765,324.329,304.031,318.996,293.365z"/>
	</g>
</g>
<g>
</g>
<g>
</g>
<g>
</g>
<g>
</g>
<g>
</g>
<g>
</g>
<g>
</g>
<g>
</g>
<g>
</g>
<g>
</g>
<g>
</g>
<g>
</g>
<g>
</g>
<g>
</g>
<g>
</g>
</svg>
