<svg width="502" height="502" viewBox="0 0 502 502" fill="none" xmlns="http://www.w3.org/2000/svg">
<g clip-path="url(#clip0_1_43)">
<path d="M337.129 206.964C348.911 206.964 358.462 197.413 358.462 185.631C358.462 173.849 348.911 164.298 337.129 164.298C325.347 164.298 315.796 173.849 315.796 185.631C315.796 197.413 325.347 206.964 337.129 206.964Z" fill="white"/>
<path d="M164.329 206.964C176.111 206.964 185.662 197.413 185.662 185.631C185.662 173.849 176.111 164.298 164.329 164.298C152.547 164.298 142.996 173.849 142.996 185.631C142.996 197.413 152.547 206.964 164.329 206.964Z" fill="white"/>
<path d="M452.329 39.498C426.729 13.898 394.729 0.0310001 361.662 0.0310001C316.862 0.0310001 275.262 25.631 249.662 67.231C224.062 25.631 183.529 0.0310001 138.729 0.0310001C64.062 0.0310001 3.26199 72.564 0.0619938 167.498C-4.20501 281.631 212.329 474.698 236.862 496.031C241.129 499.231 245.395 501.364 250.729 501.364C254.996 501.364 260.329 500.297 263.529 497.097C273.129 489.63 499.262 308.297 501.396 168.564C501.396 118.431 484.329 71.498 452.329 39.498ZM251.796 453.364C181.396 389.364 38.463 244.297 42.729 168.564C44.862 97.097 87.529 41.631 139.796 41.631C180.329 41.631 216.596 74.698 230.463 125.898C233.663 134.431 241.13 140.831 250.73 140.831C260.33 140.831 268.863 134.431 270.997 125.898C285.93 75.765 322.197 42.698 362.73 42.698C385.13 42.698 406.463 52.298 423.53 70.431C446.997 93.898 460.863 130.164 459.797 168.564C458.729 261.364 320.062 395.764 251.796 453.364Z" fill="white"/>
<path d="M318.996 293.365C313.663 282.698 301.929 278.431 291.263 283.765C246.463 305.098 213.396 285.898 211.263 284.832C201.663 278.432 188.863 281.632 182.463 291.232C176.063 300.832 179.263 313.632 188.863 320.032C190.996 320.032 214.463 334.965 249.663 334.965C267.796 334.965 288.063 331.765 309.396 321.098C320.062 315.765 324.329 304.031 318.996 293.365Z" fill="white"/>
</g>
<defs>
<clipPath id="clip0_1_43">
<rect width="501.396" height="501.396" fill="white"/>
</clipPath>
</defs>
</svg>
