<svg width="512" height="512" viewBox="0 0 512 512" fill="none" xmlns="http://www.w3.org/2000/svg">
<path d="M278.718 0C150.086 0 45.435 104.65 45.435 233.282C45.435 288.924 65.027 340.071 97.663 380.21L0 477.872L34.128 512L131.791 414.337C171.928 446.972 223.075 466.565 278.717 466.565C407.35 466.565 512 361.914 512 233.282C512 104.65 407.35 0 278.718 0ZM278.718 418.299C176.7 418.299 93.701 335.3 93.701 233.282C93.701 131.264 176.699 48.265 278.718 48.265C380.737 48.265 463.735 131.264 463.735 233.282C463.735 335.3 380.736 418.299 278.718 418.299Z" fill="white"/>
</svg>
