<svg id="Слой_1" data-name="Слой 1" xmlns="http://www.w3.org/2000/svg" viewBox="0 0 101.51 93.11"><defs><style>.cls-1,.cls-2{fill:none;stroke-miterlimit:10;}.cls-1,.cls-2,.cls-3{stroke:#1e1e1c;stroke-width:7px;}.cls-2,.cls-3{stroke-linecap:round;}.cls-3{fill:#1e1e1c;stroke-linejoin:round;}</style></defs><path class="cls-1" d="M92.45,49.09a35.7,35.7,0,0,1-1.91,12.34C85.61,75.74,70.67,89.68,51.93,89.61,31.07,89.54,11.4,72.14,11.4,49.09a40.53,40.53,0,0,1,81.05,0Z"/><line class="cls-2" x1="71.07" y1="13.47" x2="98.01" y2="3.5"/><line class="cls-1" x1="89.33" y1="31.76" x2="98.01" y2="3.5"/><line class="cls-3" x1="32.8" y1="34.86" x2="44.02" y2="48.53"/><line class="cls-3" x1="33.64" y1="48.85" x2="44.28" y2="34.72"/><line class="cls-3" x1="69.13" y1="40.86" x2="57.91" y2="54.54"/><line class="cls-3" x1="69.55" y1="55.11" x2="58.91" y2="40.98"/><line class="cls-2" x1="31.04" y1="13.26" x2="3.5" y2="5.1"/><line class="cls-1" x1="14.04" y1="32.72" x2="3.5" y2="5.1"/></svg>