<svg width="490" height="490" viewBox="0 0 490 490" fill="none" xmlns="http://www.w3.org/2000/svg">
<path d="M245 490C380.31 490 490 380.31 490 245C490 109.69 380.31 0 245 0C109.69 0 0 109.69 0 245C0 380.31 109.69 490 245 490ZM245 30.625C363.207 30.625 459.375 126.793 459.375 245C459.375 363.207 363.207 459.375 245 459.375C126.793 459.375 30.625 363.207 30.625 245C30.625 126.793 126.793 30.625 245 30.625Z" fill="white"/>
<path d="M245 231.244C278.335 231.244 305.359 204.759 305.359 172.087C305.359 139.415 278.335 112.93 245 112.93C211.665 112.93 184.641 139.415 184.641 172.087C184.641 204.759 211.665 231.244 245 231.244Z" fill="white"/>
<path d="M245 244.28C187.429 244.28 140.758 290.021 140.758 346.446H349.242C349.242 290.021 302.571 244.28 245 244.28Z" fill="white"/>
</svg>
